<mxfile host="app.diagrams.net" modified="2023-05-06T22:31:42.740Z" agent="Mozilla/5.0 (Windows NT 10.0; Win64; x64) AppleWebKit/537.36 (KHTML, like Gecko) Chrome/109.0.0.0 Safari/537.36" etag="UP690zw644_fFhuD1q4m" version="21.2.9" type="device">
  <diagram name="Страница 1" id="nLE2YMQjPGOfNL_rTo3L">
    <mxGraphModel dx="1120" dy="484" grid="1" gridSize="10" guides="1" tooltips="1" connect="1" arrows="1" fold="1" page="1" pageScale="1" pageWidth="827" pageHeight="1169" math="0" shadow="0">
      <root>
        <mxCell id="0" />
        <mxCell id="1" parent="0" />
        <mxCell id="-OvzKVSWten-OPp8QL8--5" style="edgeStyle=orthogonalEdgeStyle;rounded=0;orthogonalLoop=1;jettySize=auto;html=1;exitX=0.5;exitY=1;exitDx=0;exitDy=0;entryX=0.5;entryY=0;entryDx=0;entryDy=0;" edge="1" parent="1" source="jOHh10leO0LsWbspDSQH-1" target="-OvzKVSWten-OPp8QL8--1">
          <mxGeometry relative="1" as="geometry" />
        </mxCell>
        <mxCell id="jOHh10leO0LsWbspDSQH-1" value="Начало" style="ellipse;whiteSpace=wrap;html=1;aspect=fixed;" parent="1" vertex="1">
          <mxGeometry x="360" width="80" height="80" as="geometry" />
        </mxCell>
        <mxCell id="jOHh10leO0LsWbspDSQH-5" value="" style="edgeStyle=orthogonalEdgeStyle;rounded=0;orthogonalLoop=1;jettySize=auto;html=1;" parent="1" source="jOHh10leO0LsWbspDSQH-2" target="jOHh10leO0LsWbspDSQH-4" edge="1">
          <mxGeometry relative="1" as="geometry" />
        </mxCell>
        <mxCell id="jOHh10leO0LsWbspDSQH-2" value="Ввод массива&lt;br&gt;строк ArrSTR" style="shape=parallelogram;perimeter=parallelogramPerimeter;whiteSpace=wrap;html=1;fixedSize=1;" parent="1" vertex="1">
          <mxGeometry x="340" y="200" width="120" height="60" as="geometry" />
        </mxCell>
        <mxCell id="jOHh10leO0LsWbspDSQH-9" value="" style="edgeStyle=orthogonalEdgeStyle;rounded=0;orthogonalLoop=1;jettySize=auto;html=1;" parent="1" source="jOHh10leO0LsWbspDSQH-4" target="jOHh10leO0LsWbspDSQH-8" edge="1">
          <mxGeometry relative="1" as="geometry" />
        </mxCell>
        <mxCell id="jOHh10leO0LsWbspDSQH-4" value="Создаём пустой массив строк FinalArray с длиной 0" style="whiteSpace=wrap;html=1;" parent="1" vertex="1">
          <mxGeometry x="340" y="280" width="120" height="60" as="geometry" />
        </mxCell>
        <mxCell id="jOHh10leO0LsWbspDSQH-11" value="" style="edgeStyle=orthogonalEdgeStyle;rounded=0;orthogonalLoop=1;jettySize=auto;html=1;" parent="1" source="jOHh10leO0LsWbspDSQH-8" target="jOHh10leO0LsWbspDSQH-10" edge="1">
          <mxGeometry relative="1" as="geometry" />
        </mxCell>
        <mxCell id="jOHh10leO0LsWbspDSQH-8" value="ArrSTR&lt;br&gt;i = 0&lt;br&gt;j = 0" style="whiteSpace=wrap;html=1;" parent="1" vertex="1">
          <mxGeometry x="340" y="360" width="120" height="60" as="geometry" />
        </mxCell>
        <mxCell id="jOHh10leO0LsWbspDSQH-24" value="" style="edgeStyle=orthogonalEdgeStyle;rounded=0;orthogonalLoop=1;jettySize=auto;html=1;entryX=0.5;entryY=0;entryDx=0;entryDy=0;" parent="1" source="jOHh10leO0LsWbspDSQH-10" target="jOHh10leO0LsWbspDSQH-14" edge="1">
          <mxGeometry relative="1" as="geometry">
            <mxPoint x="420" y="630" as="targetPoint" />
          </mxGeometry>
        </mxCell>
        <mxCell id="jOHh10leO0LsWbspDSQH-32" style="edgeStyle=orthogonalEdgeStyle;rounded=0;orthogonalLoop=1;jettySize=auto;html=1;exitX=0;exitY=0.5;exitDx=0;exitDy=0;" parent="1" source="jOHh10leO0LsWbspDSQH-10" target="jOHh10leO0LsWbspDSQH-35" edge="1">
          <mxGeometry relative="1" as="geometry">
            <mxPoint x="390" y="1020" as="targetPoint" />
            <Array as="points">
              <mxPoint x="220" y="490" />
              <mxPoint x="220" y="1000" />
              <mxPoint x="400" y="1000" />
            </Array>
          </mxGeometry>
        </mxCell>
        <mxCell id="jOHh10leO0LsWbspDSQH-10" value="i &amp;lt; N" style="rhombus;whiteSpace=wrap;html=1;" parent="1" vertex="1">
          <mxGeometry x="360" y="450" width="80" height="80" as="geometry" />
        </mxCell>
        <mxCell id="jOHh10leO0LsWbspDSQH-16" value="" style="edgeStyle=orthogonalEdgeStyle;rounded=0;orthogonalLoop=1;jettySize=auto;html=1;" parent="1" source="jOHh10leO0LsWbspDSQH-14" target="jOHh10leO0LsWbspDSQH-15" edge="1">
          <mxGeometry relative="1" as="geometry" />
        </mxCell>
        <mxCell id="jOHh10leO0LsWbspDSQH-30" style="edgeStyle=orthogonalEdgeStyle;rounded=0;orthogonalLoop=1;jettySize=auto;html=1;entryX=0;entryY=0.5;entryDx=0;entryDy=0;" parent="1" source="jOHh10leO0LsWbspDSQH-14" target="jOHh10leO0LsWbspDSQH-28" edge="1">
          <mxGeometry relative="1" as="geometry">
            <Array as="points">
              <mxPoint x="280" y="600" />
              <mxPoint x="280" y="950" />
            </Array>
          </mxGeometry>
        </mxCell>
        <mxCell id="jOHh10leO0LsWbspDSQH-14" value="Длина элемента&lt;br&gt;ArrSTR[i] &amp;lt;=3" style="rhombus;whiteSpace=wrap;html=1;" parent="1" vertex="1">
          <mxGeometry x="320" y="550" width="160" height="100" as="geometry" />
        </mxCell>
        <mxCell id="jOHh10leO0LsWbspDSQH-18" value="" style="edgeStyle=orthogonalEdgeStyle;rounded=0;orthogonalLoop=1;jettySize=auto;html=1;" parent="1" source="jOHh10leO0LsWbspDSQH-15" target="jOHh10leO0LsWbspDSQH-17" edge="1">
          <mxGeometry relative="1" as="geometry" />
        </mxCell>
        <mxCell id="jOHh10leO0LsWbspDSQH-15" value="Увеличиваем длину массива FinalArray на 1" style="whiteSpace=wrap;html=1;" parent="1" vertex="1">
          <mxGeometry x="340" y="670" width="120" height="60" as="geometry" />
        </mxCell>
        <mxCell id="jOHh10leO0LsWbspDSQH-20" value="" style="edgeStyle=orthogonalEdgeStyle;rounded=0;orthogonalLoop=1;jettySize=auto;html=1;" parent="1" source="jOHh10leO0LsWbspDSQH-17" target="jOHh10leO0LsWbspDSQH-19" edge="1">
          <mxGeometry relative="1" as="geometry" />
        </mxCell>
        <mxCell id="jOHh10leO0LsWbspDSQH-17" value="FinalArray[j] = ArrSTR[i]" style="whiteSpace=wrap;html=1;" parent="1" vertex="1">
          <mxGeometry x="340" y="750" width="120" height="60" as="geometry" />
        </mxCell>
        <mxCell id="jOHh10leO0LsWbspDSQH-21" style="edgeStyle=orthogonalEdgeStyle;rounded=0;orthogonalLoop=1;jettySize=auto;html=1;entryX=0.5;entryY=0;entryDx=0;entryDy=0;exitX=1;exitY=0.5;exitDx=0;exitDy=0;" parent="1" source="jOHh10leO0LsWbspDSQH-28" target="jOHh10leO0LsWbspDSQH-10" edge="1">
          <mxGeometry relative="1" as="geometry">
            <mxPoint x="400" y="440" as="targetPoint" />
            <Array as="points">
              <mxPoint x="520" y="950" />
              <mxPoint x="520" y="430" />
              <mxPoint x="400" y="430" />
            </Array>
          </mxGeometry>
        </mxCell>
        <mxCell id="jOHh10leO0LsWbspDSQH-29" value="" style="edgeStyle=orthogonalEdgeStyle;rounded=0;orthogonalLoop=1;jettySize=auto;html=1;" parent="1" source="jOHh10leO0LsWbspDSQH-19" target="jOHh10leO0LsWbspDSQH-28" edge="1">
          <mxGeometry relative="1" as="geometry" />
        </mxCell>
        <mxCell id="jOHh10leO0LsWbspDSQH-19" value="j = j + 1&lt;br&gt;" style="whiteSpace=wrap;html=1;" parent="1" vertex="1">
          <mxGeometry x="340" y="830" width="120" height="60" as="geometry" />
        </mxCell>
        <mxCell id="jOHh10leO0LsWbspDSQH-22" value="Да" style="text;html=1;align=center;verticalAlign=middle;resizable=0;points=[];autosize=1;strokeColor=none;fillColor=none;" parent="1" vertex="1">
          <mxGeometry x="400" y="640" width="40" height="30" as="geometry" />
        </mxCell>
        <mxCell id="jOHh10leO0LsWbspDSQH-23" value="Да" style="text;html=1;align=center;verticalAlign=middle;resizable=0;points=[];autosize=1;strokeColor=none;fillColor=none;" parent="1" vertex="1">
          <mxGeometry x="400" y="520" width="40" height="30" as="geometry" />
        </mxCell>
        <mxCell id="jOHh10leO0LsWbspDSQH-28" value="i = i + 1" style="whiteSpace=wrap;html=1;" parent="1" vertex="1">
          <mxGeometry x="340" y="920" width="120" height="60" as="geometry" />
        </mxCell>
        <mxCell id="jOHh10leO0LsWbspDSQH-31" value="Нет" style="text;html=1;align=center;verticalAlign=middle;resizable=0;points=[];autosize=1;strokeColor=none;fillColor=none;" parent="1" vertex="1">
          <mxGeometry x="280" y="570" width="40" height="30" as="geometry" />
        </mxCell>
        <mxCell id="jOHh10leO0LsWbspDSQH-33" value="Нет" style="text;html=1;align=center;verticalAlign=middle;resizable=0;points=[];autosize=1;strokeColor=none;fillColor=none;" parent="1" vertex="1">
          <mxGeometry x="330" y="460" width="40" height="30" as="geometry" />
        </mxCell>
        <mxCell id="jOHh10leO0LsWbspDSQH-37" value="" style="edgeStyle=orthogonalEdgeStyle;rounded=0;orthogonalLoop=1;jettySize=auto;html=1;" parent="1" source="jOHh10leO0LsWbspDSQH-35" target="jOHh10leO0LsWbspDSQH-36" edge="1">
          <mxGeometry relative="1" as="geometry" />
        </mxCell>
        <mxCell id="jOHh10leO0LsWbspDSQH-35" value="Вывести массив ArrSTR" style="shape=parallelogram;perimeter=parallelogramPerimeter;whiteSpace=wrap;html=1;fixedSize=1;" parent="1" vertex="1">
          <mxGeometry x="340" y="1020" width="120" height="60" as="geometry" />
        </mxCell>
        <mxCell id="jOHh10leO0LsWbspDSQH-39" value="" style="edgeStyle=orthogonalEdgeStyle;rounded=0;orthogonalLoop=1;jettySize=auto;html=1;" parent="1" source="jOHh10leO0LsWbspDSQH-36" target="jOHh10leO0LsWbspDSQH-38" edge="1">
          <mxGeometry relative="1" as="geometry" />
        </mxCell>
        <mxCell id="jOHh10leO0LsWbspDSQH-36" value="Вывести массив FinalArray" style="shape=parallelogram;perimeter=parallelogramPerimeter;whiteSpace=wrap;html=1;fixedSize=1;" parent="1" vertex="1">
          <mxGeometry x="340" y="1100" width="120" height="60" as="geometry" />
        </mxCell>
        <mxCell id="jOHh10leO0LsWbspDSQH-38" value="Конец" style="ellipse;whiteSpace=wrap;html=1;" parent="1" vertex="1">
          <mxGeometry x="360" y="1180" width="80" height="80" as="geometry" />
        </mxCell>
        <mxCell id="-OvzKVSWten-OPp8QL8--3" style="edgeStyle=orthogonalEdgeStyle;rounded=0;orthogonalLoop=1;jettySize=auto;html=1;exitX=0.5;exitY=1;exitDx=0;exitDy=0;entryX=0.5;entryY=0;entryDx=0;entryDy=0;" edge="1" parent="1" source="-OvzKVSWten-OPp8QL8--1" target="jOHh10leO0LsWbspDSQH-2">
          <mxGeometry relative="1" as="geometry" />
        </mxCell>
        <mxCell id="-OvzKVSWten-OPp8QL8--1" value="Ввод переменной N, отвечающей за размер массива ArrSTR" style="shape=parallelogram;perimeter=parallelogramPerimeter;whiteSpace=wrap;html=1;fixedSize=1;" vertex="1" parent="1">
          <mxGeometry x="320" y="110" width="160" height="60" as="geometry" />
        </mxCell>
      </root>
    </mxGraphModel>
  </diagram>
</mxfile>
